<svg xmlns="http://www.w3.org/2000/svg" width="390" height="44" viewBox="0 0 390 44" role="img" aria-label="Status Bar"><g id="Status-Bar--local-238" data-layer="Status Bar" transform="translate(0 0)" opacity="1"><g id="Time--local-239" data-layer="Time" transform="translate(24 11)" opacity="1"><text fill="rgb(241,243,250)" font-family="Noto Sans KR, Malgun Gothic, sans-serif" font-size="14" font-weight="400" letter-spacing="-0.2" text-anchor="start"><tspan x="0" y="15.76">9:41</tspan></text></g><g id="System-indicators-editable-vectors--local-240" data-layer="System indicators / editable vectors" transform="translate(286 12)" opacity="1"><svg xmlns="http://www.w3.org/2000/svg" width="80" height="20" viewBox="0 0 80 20"><g fill="#F1F3FA"><rect x="0" y="12" width="3" height="6" rx="1"/><rect x="5" y="9" width="3" height="9" rx="1"/><rect x="10" y="5" width="3" height="13" rx="1"/><rect x="15" y="2" width="3" height="16" rx="1"/></g><path d="M28 7 Q37 -1 46 7 M31 11 Q37 5 43 11 M34 15 Q37 12 40 15" fill="none" stroke="#F1F3FA" stroke-width="2.5" stroke-linecap="round"/><rect x="54" y="4" width="22" height="12" rx="3" fill="none" stroke="#F1F3FA" stroke-width="1.5"/><rect x="57" y="7" width="16" height="6" rx="1" fill="#F1F3FA"/><path d="M78 8 L78 12" stroke="#F1F3FA" stroke-width="2"/></svg></g></g></svg>